# xmcd
#
# Track frame offsets:
#	150
#	14790
#	30068
#	43150
#	59812
#	74481
#	91336
#	104152
#	120837
#	142655
#	158025
#	176497
#	193603
#	209890
#	227457
#	245527
#	261113
#	277228
#	295318
#	311813
#
# Disc length: 4336 seconds
#
# Revision: 1
# Processed by: cddbd v1.5.2PL0 Copyright (c) Steve Scherf et al.
# Submitted via: audiograbber 1.83.01
#
DISCID=3010ee14
DTITLE=Adam Brand - Greatest Hits 1998 - 2008
DYEAR=2008
DGENRE=Country
TTITLE0=Last Man Standing
TTITLE1=Grandpa's Piano
TTITLE2=Dirt Track Cowboys
TTITLE3=Good Friends
TTITLE4=Beating Around The Bush
TTITLE5=Good Things In Life
TTITLE6=I Did What?
TTITLE7=New England Highway
TTITLE8=The Anzac
TTITLE9=That Was Us
TTITLE10=Old Hands
TTITLE11=Get Loud
TTITLE12=She's Country
TTITLE13=This Time Of Year
TTITLE14=Open Ended Heartache
TTITLE15=Can't Live Without Your Love
TTITLE16=Cigarettes and Whiskey
TTITLE17=That Changes Everything
TTITLE18=Blame It On Eve Acoustic
TTITLE19=Dirt Track Cowboys 08
EXTD=
EXTT0=
EXTT1=
EXTT2=
EXTT3=
EXTT4=
EXTT5=
EXTT6=
EXTT7=
EXTT8=
EXTT9=
EXTT10=
EXTT11=
EXTT12=
EXTT13=
EXTT14=
EXTT15=
EXTT16=
EXTT17=
EXTT18=
EXTT19=
PLAYORDER=
